<svg width="786" height="558" viewBox="0 0 786 558" fill="none" xmlns="http://www.w3.org/2000/svg">
<g clip-path="url(#clip0)">
<g style="mix-blend-mode:multiply" opacity="0.100028">
<path fill-rule="evenodd" clip-rule="evenodd" d="M783.105 -37.7113C750.649 -57.7349 715.683 -71.4025 679.841 -82.6268C628.528 -98.6967 577.234 -114.862 525.681 -129.87C492.74 -139.461 459.532 -149.101 426.11 -155.016C380.653 -163.072 335.309 -164.541 290.565 -158.213C249.375 -152.383 210.943 -140.843 175.324 -122.938C143.472 -106.933 115.758 -86.1269 91.115 -61.2128C62.2645 -32.0424 40.3001 1.39582 24.4268 38.5129C11.3918 69.0033 4.01436 101.817 1.66669 135.773C-2.57312 197.176 8.8464 257.734 36.8542 316.361C54.7976 353.896 78.4069 388.743 108.319 420.257C134.339 447.67 163.57 471.217 195.023 491.851C220.052 508.273 247.647 520.432 275.779 531.169C309.353 543.982 343.652 551.849 378.348 555.625C432.656 561.53 484.825 556.262 534.78 540.467C574.857 527.803 610.707 508.514 644.673 486.408C660.15 476.328 673.231 463.173 687.384 451.398C707.116 434.992 727.013 418.742 746.498 402.082C764.662 386.563 782.681 370.879 800.219 354.741C822.437 334.29 844.593 313.798 862.841 289.743C880.078 267.019 893.435 242.269 901.49 214.911C909.719 186.973 910.955 157.702 905.64 127.649C897.318 80.5455 874.167 39.6137 838.26 3.95434C821.83 -12.3661 802.97 -25.6891 783.105 -37.7113Z" fill="#FFAD43"/>
</g>
</g>
<defs>
<clipPath id="clip0">
<rect width="909" height="721" fill="white" transform="translate(0 -163)"/>
</clipPath>
</defs>
</svg>
