<svg width="426" height="97" viewBox="0 0 426 97" fill="none" xmlns="http://www.w3.org/2000/svg">
<g clip-path="url(#clip0)">
<g style="mix-blend-mode:multiply" opacity="0.397763">
<path fill-rule="evenodd" clip-rule="evenodd" d="M242.967 -374.27C272.008 -367.792 294.539 -357.188 315.093 -341.717C330.141 -330.392 343.383 -317.311 354.892 -302.615C366.677 -287.561 376.787 -271.244 385.411 -254.066C397.936 -229.12 407.996 -203.251 415.47 -176.291C423.783 -146.311 427.464 -115.845 424.804 -84.8536C423.828 -73.4743 422.318 -61.9239 418.131 -51.0012C414.963 -42.7398 413.054 -33.8843 409.079 -26.0671C403.298 -14.6932 396.813 -3.54212 389.455 6.86623C374.664 27.8028 355.113 43.3718 332.021 54.172C319.388 60.0838 306.653 66.0879 293.416 70.2891C279.684 74.6443 265.324 77.0278 251.176 79.9816C239.196 82.4864 227.168 84.7881 215.095 86.7829C197.444 89.6985 179.815 93.3528 162.029 94.7058C139.382 96.43 116.51 98.0559 93.9871 92.9549C72.1527 88.0132 51.9935 79.0663 35.4195 63.8451C20.9095 50.5189 11.1422 33.8445 5.21552 14.7145C-1.33574 -6.41811 -0.782691 -27.6815 3.62306 -48.7659C6.84213 -64.1687 12.2847 -79.1008 18.9714 -93.4861C24.4775 -105.339 30.2349 -117.148 34.6038 -129.431C39.2046 -142.363 43.9887 -155.344 45.9639 -169.092C48.7688 -188.591 51.5105 -208.103 54.6439 -227.551C57.402 -244.637 62.4803 -261.096 68.6891 -277.257C73.7798 -290.514 80.7565 -302.696 89.4037 -313.75C105.666 -334.531 124.55 -352.119 149.427 -362.437C164.219 -368.575 179.05 -374.173 195.058 -375.633C202.857 -376.346 210.745 -376.718 218.556 -376.407C228.066 -376.032 237.536 -374.772 242.967 -374.27Z" fill="#97CAD1"/>
</g>
</g>
<defs>
<clipPath id="clip0">
<rect width="426" height="474" fill="white" transform="translate(0 -377)"/>
</clipPath>
</defs>
</svg>
