<svg width="67" height="125" viewBox="0 0 67 125" fill="none" xmlns="http://www.w3.org/2000/svg">
<g clip-path="url(#clip0)">
<path fill-rule="evenodd" clip-rule="evenodd" d="M75.6721 123.112C68.372 124.721 62.1176 124.706 55.7979 123.378C51.1715 122.407 46.7701 120.847 42.5926 118.737C38.3143 116.575 34.2836 113.95 30.5003 110.972C25.006 106.648 19.9751 101.854 15.4177 96.5386C10.3494 90.6282 6.28468 84.1169 3.60822 76.8151C2.62558 74.134 1.74612 71.3578 1.54307 68.44C1.38964 66.2331 0.886452 64.0249 0.963926 61.8331C1.0761 58.6443 1.37212 55.4315 1.94553 52.2945C3.09689 45.9852 5.90099 40.3875 10.0165 35.495C12.2675 32.8177 14.5319 30.1087 17.1019 27.7548C19.7681 25.3137 22.7862 23.2528 25.6956 21.0851C28.1587 19.2487 30.6543 17.4532 33.1927 15.7226C36.904 13.1924 40.532 10.4972 44.4393 8.30688C49.4147 5.51735 54.4516 2.72637 60.1214 1.4961C65.6176 0.302656 71.1564 0.193946 76.5431 1.88624C81.2591 3.36789 85.2494 6.1103 88.6252 9.81581C92.3553 13.9088 94.4812 18.784 95.7107 24.0267C96.6088 27.8567 96.9506 31.8156 96.9512 35.7825C96.9525 39.0507 96.8918 42.3355 97.1976 45.5805C97.5193 48.9971 97.8045 52.4444 98.8106 55.7678C100.237 60.4818 101.679 65.1922 103.025 69.9294C104.206 74.0919 104.793 78.3581 105.09 82.6765C105.335 86.2188 105.036 89.7173 104.237 93.1372C102.734 99.5671 100.296 105.551 95.7228 110.524C93.004 113.481 90.2191 116.32 86.7278 118.346C85.027 119.334 83.2701 120.254 81.4581 121.011C79.2524 121.933 76.9623 122.651 75.6721 123.112Z" fill="#F7EBEB"/>
</g>
<defs>
<clipPath id="clip0">
<rect width="67" height="125" fill="white"/>
</clipPath>
</defs>
</svg>
