<svg width="225" height="256" viewBox="0 0 225 256" fill="none" xmlns="http://www.w3.org/2000/svg">
<g clip-path="url(#clip0)">
<g style="mix-blend-mode:multiply" opacity="0.3">
<path fill-rule="evenodd" clip-rule="evenodd" d="M209.218 191.683C201.54 204.696 192.89 213.915 182.2 221.414C174.375 226.905 165.985 231.247 157.087 234.499C147.972 237.827 138.51 240.147 128.866 241.615C114.861 243.746 100.795 244.542 86.609 243.916C70.8333 243.222 55.5484 240.213 41.0039 234.058C35.6635 231.798 30.3239 229.254 25.707 225.514C22.2152 222.686 18.2392 220.372 15.0883 217.223C10.5034 212.643 6.13626 207.758 2.26449 202.567C-5.52507 192.132 -9.97733 180.239 -11.5725 167.385C-12.4469 160.353 -13.3499 153.257 -13.3037 146.201C-13.2543 138.883 -12.1546 131.57 -11.3635 124.271C-10.6955 118.089 -9.92179 111.916 -8.9929 105.77C-7.63436 96.7839 -6.63595 87.6924 -4.50206 78.8872C-1.78546 67.6744 1.01376 56.3688 7.00586 46.2887C12.8131 36.5162 20.2914 28.1823 30.2368 22.5666C38.944 17.6503 48.5244 15.5515 58.6884 15.694C69.917 15.8495 80.0955 19.4579 89.5838 24.8995C96.5153 28.8751 102.871 33.8509 108.768 39.3419C113.627 43.8646 118.426 48.5019 123.671 52.5426C129.193 56.7974 134.71 61.1486 141.038 64.2631C150.011 68.6822 159.002 73.0729 167.899 77.6427C175.716 81.6601 182.865 86.6997 189.694 92.2388C195.297 96.7816 200.084 102.066 204.066 107.981C211.55 119.104 217.081 130.99 218.164 144.631C218.809 152.742 219.188 160.787 217.384 168.75C216.506 172.631 215.45 176.5 214.075 180.225C212.404 184.761 210.312 189.138 209.218 191.683Z" fill="#FFAD43"/>
</g>
</g>
<defs>
<clipPath id="clip0">
<rect width="244" height="256" fill="white" transform="translate(-19)"/>
</clipPath>
</defs>
</svg>
